<?xml version="1.0" encoding="utf-8"?>
<!-- Generator: Adobe Illustrator 27.3.1, SVG Export Plug-In . SVG Version: 6.00 Build 0)  -->
<svg version="1.1" id="Layer_1" xmlns="http://www.w3.org/2000/svg" xmlns:xlink="http://www.w3.org/1999/xlink" x="0px" y="0px"
	 viewBox="0 0 1080 1080" style="enable-background:new 0 0 1080 1080;" xml:space="preserve">
<style type="text/css">
	.st0{fill:#FFFFFF;}
	.st1{fill:#FF0000;}
</style>
<rect class="st0" width="1080" height="1080"/>
<g>
	<polygon points="829.06,752.23 824.14,758.6 829.05,752.23 	"/>
	<g>
		<g>
			<circle cx="539.09" cy="450.59" r="171.31"/>
			<circle class="st1" cx="539.09" cy="450.59" r="143.28"/>
			<g>
				<path class="st0" d="M567.49,352.49c7.03,2.34,13.87,5.41,20.4,9.21c0.05-9.04-1.52-17.59-5-25.31
					c-6.6-2.54-13.38-4.52-20.25-5.87C565.21,337.63,566.83,344.99,567.49,352.49z"/>
				<path class="st0" d="M452.72,363.93c-13.68,13.69-23.42,29.82-29.24,46.99c-4.62,16.42-5.39,32.93-2.15,48.03
					c2.05,0.11,4.12,0.15,6.21,0.15c1.84-21.47,10.96-42.43,27.38-58.85c25.84-25.84,62.87-33.61,95.47-23.36
					c2.23-5.54,3.9-11.13,4.97-16.68c-35.38-9.74-74.85-0.73-102.65,27.08c-13.83,13.83-23,30.56-27.54,48.23
					c4.01-20.73,14.04-40.52,30.09-56.58c27.53-27.53,66.07-37.32,101.45-29.42c0.36-6.96-0.29-13.77-2.05-20.26
					C518.45,324.57,480.54,336.11,452.72,363.93z"/>
				<path class="st0" d="M604.06,389.56c-0.61,7.8-2.06,15.71-4.35,23.61c4.22,6.05,7.65,12.47,10.3,19.15
					c3.56-8.09,6.24-16.26,7.98-24.35C614.11,401.45,609.45,395.29,604.06,389.56z"/>
				<path class="st0" d="M592.51,432.25c-2.55,5.46-5.51,10.85-8.86,16.12c2.49,6.02,4.21,12.28,5.15,18.63
					c4.12-5.13,7.87-10.44,11.25-15.86C598.29,444.63,595.78,438.29,592.51,432.25z"/>
				<path class="st0" d="M632.12,371.48c6.46,15.97,7.95,33.27,4.73,50.75c12.44,38,3.59,81.45-26.62,111.65
					c-16.05,16.05-35.85,26.08-56.58,30.09c17.67-4.54,34.4-13.71,48.23-27.54c25.51-25.51,35.21-60.84,29.11-93.83
					c-3.56,9.11-8.36,18.14-14.38,26.92c-0.56,23.48-9.78,46.79-27.69,64.7c-18.6,18.6-43,27.84-67.37,27.74
					c20.32-1.5,40.22-10,55.76-25.54c13.73-13.73,21.97-30.87,24.73-48.7c-1.6,1.73-3.23,3.45-4.93,5.15
					c-3.66,3.66-7.46,7.07-11.36,10.27c-3.74,11.49-10.15,22.3-19.28,31.43c-15.63,15.63-59.83,31.98-92.71,14.14
					c-8.24-4.47-15.07-10.71-19.92-15.13c-11.13-10.15-18.61-20.29-23.32-27.57c4.98,9.66,11.34,18.79,19.08,27.11
					c1.01,1.12,2.05,2.21,3.12,3.29c1.29,1.29,2.6,2.54,3.94,3.74c47.86,43.84,122.21,42.6,168.56-3.74
					C670.42,491.23,672.7,419.4,632.12,371.48z"/>
				<path class="st0" d="M612.38,352.79c-5.21-3.94-10.65-7.41-16.29-10.4c4.48,9.54,7.15,19.98,8,30.9
					c2.09,1.8,4.15,3.66,6.13,5.64c3.66,3.66,6.98,7.53,10.02,11.55C620.77,376.92,618.28,364.05,612.38,352.79z"/>
				<path class="st0" d="M452.72,411.85c-13.36,13.36-21.5,29.94-24.49,47.24c1.87-0.02,3.76-0.07,5.66-0.18
					c3.4-13.27,10.28-25.84,20.67-36.23c21.81-21.81,53.19-28.21,80.63-19.23c3.11-4.12,5.92-8.35,8.4-12.64
					C512.79,380.26,477.3,387.27,452.72,411.85z"/>
				<path class="st0" d="M565.16,382.92c5.85,3,11.46,6.64,16.72,10.95c2.23-6.44,3.89-12.84,4.9-19.1
					c-6.05-4.14-12.44-7.6-19.05-10.34C567.47,370.59,566.61,376.78,565.16,382.92z"/>
				<path class="st0" d="M560.16,398.48c-1.89,4.65-4.12,9.22-6.69,13.68c4.61,2.98,8.98,6.48,13.01,10.51
					c0.39,0.38,0.74,0.79,1.12,1.18c2.78-4.62,5.33-9.29,7.61-14C570.52,405.46,565.47,401.66,560.16,398.48z"/>
			</g>
			<g>
				<path class="st0" d="M458.84,462.35l95.76-33.74c1.37-0.48,2.65,0.9,2.07,2.23l-42.03,96.05c-0.64,1.45-2.76,1.27-3.13-0.27
					l-52.68-61.13C457.37,464.95,457.37,462.87,458.84,462.35z"/>
				<path class="st0" d="M490.41,469.26l-39.54,35.94c-1.79,1.63-1.92,4.4-0.28,6.18l14.07,15.37c1.62,1.77,4.38,1.9,6.16,0.28
					l38.69-35.11c1.72-1.56,1.92-4.2,0.45-6l-13.22-16.2C495.15,467.79,492.26,467.57,490.41,469.26z"/>
			</g>
		</g>
		<g>
			<path class="st1" d="M539.09,631.44c-48.31,0-93.72-18.81-127.88-52.97c-34.16-34.16-52.97-79.57-52.97-127.88
				s18.81-93.72,52.97-127.88c34.16-34.16,79.57-52.97,127.88-52.97c48.31,0,93.72,18.81,127.88,52.97
				c34.16,34.16,52.97,79.57,52.97,127.88s-18.81,93.72-52.97,127.88C632.81,612.63,587.4,631.44,539.09,631.44z M539.09,273.11
				c-97.86,0-177.48,79.62-177.48,177.48s79.62,177.48,177.48,177.48c97.86,0,177.48-79.62,177.48-177.48
				S636.96,273.11,539.09,273.11z"/>
		</g>
	</g>
	<g>
		<g>
			<rect x="378.06" y="724.11" class="st1" width="55.51" height="29.44"/>
			<path d="M380.06,726.11v25.44h51.51v-25.44H380.06z"/>
			<polygon class="st1" points="472.96,719.91 472.96,808.19 443.46,808.19 443.46,659.92 472.18,682.07 560.65,750.26 
				560.65,661.48 590.16,661.48 590.16,810.26 			"/>
			<path d="M562.65,663.48v90.84l-91.68-70.67l-25.5-19.67v142.2h25.5v-90.34l91.68,70.67l25.52,19.67V663.48H562.65z"/>
			<rect x="597.62" y="720.12" class="st1" width="75.15" height="29.42"/>
			<rect x="599.62" y="722.12" width="71.15" height="25.42"/>
			<rect x="597.62" y="661.48" class="st1" width="100.57" height="29.42"/>
			<rect x="599.62" y="663.48" width="96.57" height="25.42"/>
			<rect x="597.62" y="778.77" class="st1" width="100.57" height="29.42"/>
			<rect x="599.62" y="780.77" width="96.57" height="25.42"/>
			<path class="st1" d="M812.73,808.28l-37.92-49.15l-37.92,49.15h-37.17l40.54-52.54l0.08,0.06l51.46-66.79l21.26-27.53h35.01v2.68
				l-0.42,0.62l-54.31,70.31l56.54,73.17H812.73z M699.39,661.49h37.17l36.18,46.88l-18.57,24.11L699.39,661.49z"/>
			<path d="M846.08,663.49h-32.03l-20.65,26.75l-7.32,9.5l-45.38,58.89l-0.08-0.06l-36.82,47.71h32.11l38.9-50.42l38.9,50.42h32.11
				l-55-71.17l55.26-71.53V663.49z M735.57,663.49h-32.11l50.7,65.71l16.05-20.83L735.57,663.49z"/>
		</g>
		<g>
			<g>
				<path class="st1" d="M235.89,808.19c-3.35,0-5.79-2.43-5.79-5.79v-19.87c0-3.35,2.43-5.79,5.79-5.79h29.52
					c39.46,0,52.13-11.79,52.13-48.53v-34.9l-54.02,0.18c-3.36,0-5.79-2.43-5.79-5.79c0-18.01,7.62-26.04,24.71-26.04l71.54-0.19
					c3.36,0,5.79,2.43,5.79,5.79v61.89c0,58.27-46.98,79.03-90.96,79.03H235.89z"/>
				<path d="M235.89,806.19c-2.27,0-3.79-1.51-3.79-3.79v-19.87c0-2.27,1.51-3.79,3.79-3.79h29.53c38.23,0,54.13-10.6,54.13-50.53
					V691.3l-56.02,0.19c-2.27,0-3.78-1.51-3.78-3.79c0-16.28,6.06-24.04,22.71-24.04l71.54-0.19c2.27,0,3.79,1.51,3.79,3.79v61.89
					c0,52.81-40.31,77.03-88.96,77.03H235.89z"/>
			</g>
		</g>
	</g>
</g>
</svg>
